<?xml version="1.0" encoding="utf-8"?>
<!-- Generator: Adobe Illustrator 23.0.1, SVG Export Plug-In . SVG Version: 6.00 Build 0)  -->
<svg version="1.1" id="Calque_1" xmlns="http://www.w3.org/2000/svg" xmlns:xlink="http://www.w3.org/1999/xlink" x="0px" y="0px"
	 width="77.5px" height="77.5px" viewBox="0 0 77.5 77.5" enable-background="new 0 0 77.5 77.5" xml:space="preserve">
<path fill="#7CBE4A" d="M40,0c-9.96,0-19.01,3.89-25.73,10.23C7.03,17.07,2.5,26.75,2.5,37.5C2.5,58.21,19.29,75,40,75
	c10.75,0,20.43-4.53,27.27-11.77C73.61,56.51,77.5,47.46,77.5,37.5C77.5,16.79,60.71,0,40,0z"/>
<g>
	<path fill="#263F10" d="M63.32,18.79c0,0.45,0,0.87,0,1.29c0,10.24,0,20.49,0.01,30.73c0,0.21-0.06,0.3-0.26,0.37
		c-6.45,2.34-12.89,4.69-19.34,7.04c-0.72,0.26-1.44,0.53-2.16,0.8c-0.19,0.07-0.23,0.03-0.22-0.16c0.01-0.54,0-1.09,0-1.63
		c0-10.04,0-20.08,0-30.12c0-0.2,0.02-0.32,0.25-0.41c7.16-2.6,14.32-5.21,21.47-7.82C63.14,18.85,63.2,18.83,63.32,18.79z"/>
	<path fill="#263F10" d="M38.64,42.94c0,5.27,0,10.53,0,15.8c0,0.35,0,0.34-0.33,0.22c-4.21-1.54-8.42-3.07-12.63-4.61
		c-2.93-1.07-5.85-2.13-8.78-3.19c-0.18-0.07-0.22-0.15-0.22-0.33c0-10.58,0.01-21.17,0-31.75c0-0.28,0.09-0.26,0.29-0.18
		c5.69,2.07,11.38,4.14,17.07,6.21c1.45,0.53,2.9,1.06,4.35,1.57c0.21,0.08,0.27,0.18,0.27,0.4C38.64,32.37,38.64,37.65,38.64,42.94
		z"/>
	<path fill="#263F10" d="M21.34,15.95c5.45,2.86,10.87,5.69,16.31,8.54c-0.15,0.09-0.24,0.02-0.32-0.01
		c-5.24-1.89-10.47-3.78-15.71-5.66c-0.22-0.08-0.29-0.18-0.28-0.41C21.35,17.61,21.34,16.81,21.34,15.95z"/>
	<path fill="#263F10" d="M42.62,24.37c4.91-2.57,9.81-5.15,14.72-7.72c0.41-0.22,0.82-0.43,1.31-0.69c0,0.92,0,1.77,0,2.62
		c0,0.17-0.13,0.17-0.24,0.21c-1.29,0.47-2.59,0.95-3.88,1.42c-3.88,1.4-7.76,2.8-11.64,4.2c-0.05,0.02-0.09,0.03-0.14,0.04
		C42.69,24.46,42.62,24.48,42.62,24.37z"/>
	<path fill="#263F10" d="M42.33,24.6c-0.06,0.1-0.16,0.08-0.27,0.06c0.08-0.08,0.17-0.11,0.26-0.12c0.02,0.01,0.03,0.02,0.03,0.03
		C42.34,24.59,42.34,24.6,42.33,24.6z"/>
	<path fill="#263F10" d="M42.33,24.6c0-0.02-0.01-0.04-0.01-0.06c0.04-0.07,0.11-0.09,0.19-0.11c0.03,0.04,0.1,0.01,0.12,0.06
		C42.54,24.57,42.44,24.58,42.33,24.6z"/>
	<path fill="#263F10" d="M37.88,24.65c-0.08,0.05-0.15,0.03-0.2-0.03c-0.01-0.01,0.01-0.07,0.02-0.07
		C37.78,24.54,37.84,24.57,37.88,24.65z"/>
	<path fill="#263F10" d="M42.63,24.5c-0.05-0.01-0.1-0.01-0.12-0.06c0.04-0.02,0.07-0.04,0.11-0.06c0.03,0.06,0.09,0.06,0.14,0.08
		C42.73,24.49,42.68,24.49,42.63,24.5z"/>
</g>
<g>
	<path fill="#FFFFFF" stroke="#7CBE4A" stroke-width="5" stroke-miterlimit="10" d="M29.5,56.5v10c0,4.67-3.82,8.5-8.5,8.5H4.46
		c-1.08,0-1.96-0.88-1.96-1.96V56.5c0-4.67,3.82-8.5,8.5-8.5h10C25.67,48,29.5,51.83,29.5,56.5z"/>
	<g>
		
			<path fill="#263F10" stroke="#263F10" stroke-width="2" stroke-linecap="round" stroke-linejoin="round" stroke-miterlimit="10" d="
			M6.72,60.16h7.45v-7.13h2.59v7.13h7.55v2.65h-7.55v7.17h-2.59v-7.17H6.72V60.16z"/>
	</g>
</g>
</svg>
